
****** All.The.Kings.Men.2006.SWESUB.DVDRip.XviD.Zen_Bud.avi ******


Format                           : AVI
File size                        : 1.96 GiB
Duration                         : 2h 2mn
Overall bit rate                 : 2 286 Kbps

Video

Format                           : MPEG-4 Visual
Codec ID/Hint                    : XviD
Duration                         : 2h 2mn
Bit rate                         : 2 145 Kbps
Width                            : 720 pixels
Height                           : 552 pixels
Display aspect ratio             : 1.855
Stream size                      : 1.84 GiB (94%)
Writing library                  : XviD 1.1.2 (UTC 2006-11-01)

Audio

Format                           : MPEG Audio
Codec ID/Hint                    : MP3
Duration                         : 2h 2mn
Bit rate                         : 128 Kbps
Channel(s)                       : 2 channels
Sampling rate                    : 48.0 KHz
Stream size                      : 112 MiB (6%)
Writing library                  : LAME3.98

